<?xml version="1.0" encoding="utf-8"?>
<!-- Generator: Adobe Illustrator 20.0.0, SVG Export Plug-In . SVG Version: 6.00 Build 0)  -->
<svg version="1.1" id="Layer_1" xmlns="http://www.w3.org/2000/svg" xmlns:xlink="http://www.w3.org/1999/xlink" x="0px" y="0px"
	 viewBox="0 0 59.4 59.4" style="enable-background:new 0 0 59.4 59.4;" xml:space="preserve">
<style type="text/css">
	.st0{fill:#F16162;}
	.st1{fill:#FFFFFF;}
</style>
<circle class="st0" cx="29.7" cy="29.7" r="28.4"/>
<path class="st1" d="M49.7,30.5c-1.2-3.2-3.8-8.3-5.3-11.7C44,18.1,44,15.4,43.1,15s-2.7,0.9-5.5,0.9c-0.8,0.9-1.9,2.5-2.4,3.3
	c-0.1-0.2-0.3-0.4-0.5-0.4h-0.2v-2.2c0-0.1-0.1-0.2-0.2-0.2c0,0-13.1-1.8-13.9-1.9c-0.8-0.1-0.8,0.5-0.7,0.6l1.9,3.6h-0.1
	c-0.3,0-0.5,0.3-0.5,0.6l-0.6,3.3c0,0.3,0.3,0.6,0.6,0.6h-0.1c-0.1,0-0.2,0-0.3-0.1c-4.3,2.7-7.1,7.5-7.1,12.9
	c0,7.1,6.5,11.8,14.6,11.8s14.6-4.7,14.6-11.8c0-5.3-2.8-10.2-7.1-12.8c0.2-0.1,0.4-0.3,0.4-0.5l-0.1-0.4c1-0.7,2.8-1.9,3.4-2.3
	c0.7-0.6,2.2-1,3,0.8c0.5,1,2.9,7.3,5.5,10.3c0.5,0.6,1.1,0.8,1.6,0.9C49.6,31.9,50.2,31.8,49.7,30.5z M35.8,25.6
	c3.1,2.5,5,6.4,5,10.4c0,2.8-1.2,5.3-3.6,7.2c-2.4,1.8-5.6,2.9-9.2,2.9c-3.6,0-6.9-1-9.2-2.9c-2.3-1.8-3.6-4.3-3.6-7.2
	c0-4,1.8-7.7,4.8-10.3c0.3-0.3,0.8-0.8,2-0.8c1.2,0,11,0,12,0C35,25,35.5,25.4,35.8,25.6z"/>
<path class="st1" d="M35,26.7c-1-0.5-1.2-0.2-0.4,0.6c0,0,1.2,1.3,1.7,3.3c0.4,2-0.2,3.7-0.2,3.7c-0.4,1.1-0.1,1.2,0.6,0.4
	c0,0,1.6-2,1.1-4.4C37.4,27.8,35,26.7,35,26.7z"/>
<path class="st1" d="M35,26.7c-1-0.5-1.2-0.2-0.4,0.6c0,0,1.2,1.3,1.7,3.3c0.4,2-0.2,3.7-0.2,3.7c-0.4,1.1-0.1,1.2,0.6,0.4
	c0,0,1.6-2,1.1-4.4C37.4,27.8,35,26.7,35,26.7z"/>
</svg>
