<?xml version="1.0" encoding="utf-8"?>
<!-- Generator: Adobe Illustrator 20.0.0, SVG Export Plug-In . SVG Version: 6.00 Build 0)  -->
<svg version="1.1" id="Layer_1" xmlns="http://www.w3.org/2000/svg" xmlns:xlink="http://www.w3.org/1999/xlink" x="0px" y="0px"
	 viewBox="0 0 59.4 59.4" style="enable-background:new 0 0 59.4 59.4;" xml:space="preserve">
<style type="text/css">
	.st0{fill:#F16162;}
	.st1{fill:#FFFFFF;}
</style>
<circle class="st0" cx="29.7" cy="29.7" r="28.4"/>
<path class="st1" d="M31.4,39.7c0,0,0-0.1,0-0.1c1.2-0.1,2.4-0.5,3.4-1.1c0,0,0,0,0,0c1.3-0.9,2-2.1,2-3.4c0-0.7-0.2-1.3-0.5-1.9
	c0.9-0.6,1.3-1.4,1.3-2.6c0-0.4,0-0.8-0.2-1.2c1.3,0.1,2.7,0.3,4.2,0.5c2.9,0.4,5.1,0.2,6.4-0.5l0,0c1.7-0.9,2.5-2,2.3-3.5l0,0
	c-0.1-1.4-0.7-2.4-1.9-3.2l0,0c-0.9-0.6-2.2-1-3.7-1.2c-1.3-0.1-3.4-0.3-6.1-0.4c-2.7-0.1-5-0.1-6.9,0.1c-0.1,0-0.3,0-0.4,0.1
	c-0.3-0.6-0.8-1.2-1.4-1.8c-1.6-1.7-3.4-2.5-5.4-2.5c-1.4,0-2.9,0.7-4.7,2.1c-1,0.8-1.9,2.1-2.6,3.7c-0.4-0.2-0.8-0.3-1.3-0.3
	c-1.6-0.1-2.8,0.9-3.7,2.8l0,0c-0.7,1.3-1.1,2.8-1.3,4.3l0,0c-0.2,1.6,0,3.2,0.5,4.8l0,0c0.6,1.9,2.1,2.9,4.6,3c0.1,0,0.2,0,0.2,0
	c0.2,0.3,0.5,0.6,0.7,0.9c1.1,1.1,2.3,1.7,3.8,1.7c0.1,0,0.4,0,0.7-0.1c0.2,0,0.3,0,0.3,0c0,0,0,0,0.1,0c0.3,0.5,0.6,1,1.1,1.5l0,0
	c1.1,1.2,2.4,1.8,3.7,1.7c1.2,0,2.2-0.3,3.1-1C31,41.5,31.4,40.7,31.4,39.7z M27.9,33.4L27.9,33.4c0.7,0.4,1.5,0.7,2.3,0.8l0,0
	c0.6,0.1,1.2,0.2,1.8,0.2c0.8,0,1.6-0.1,2.4-0.4c0.2,0.3,0.2,0.6,0.3,1c0,0.7-0.4,1.2-1.1,1.7l0,0c-0.8,0.5-1.7,0.8-2.6,0.8
	c-1.2,0-2.2-0.3-3.2-0.8l0,0c-1-0.6-1.5-1.3-1.5-2.2c0-0.4,0.1-0.6,0.4-0.8l0,0C27,33.5,27.3,33.4,27.9,33.4
	C27.8,33.4,27.8,33.4,27.9,33.4z M38.6,23.3c2.6,0.1,4.6,0.2,5.9,0.3c1.1,0.1,2.1,0.4,2.8,0.8l0,0c0.6,0.4,0.9,0.9,0.9,1.6l0,0
	c0,0.6-0.4,1.1-1.1,1.4l0,0c-1.1,0.5-2.8,0.6-5.2,0.3c-2.7-0.4-5-0.6-6.9-0.8c-0.2,0-0.4,0-0.6,0.2c-0.2,0.1-0.3,0.3-0.4,0.5
	c-0.1,0.2-0.1,0.4,0,0.7c0.1,0.2,0.2,0.4,0.4,0.5c0.8,0.6,1.2,1.1,1.3,1.6c0,0.4-0.1,0.7-0.4,0.9c-0.3,0.2-0.6,0.4-0.8,0.5
	c-0.1,0-0.2,0.1-0.3,0.1c0,0,0,0,0,0c-0.6,0.3-1.2,0.4-1.9,0.4c-0.5,0-1,0-1.5-0.1l0,0c-0.6-0.1-1.2-0.3-1.8-0.6c0,0,0,0,0,0
	c-0.1,0-0.2-0.1-0.3-0.1c-0.8-0.5-1.2-1.1-1.2-1.8c0-0.3,0.1-0.5,0.4-0.6l0,0c0.4-0.2,0.8-0.3,1.4-0.3c0.2,0,0.6,0.2,1.2,0.4
	c0,0,0,0,0,0c0.1,0.1,0.3,0.1,0.4,0.2c0.3,0.1,0.5,0.1,0.8,0c0.3-0.1,0.4-0.3,0.5-0.6c0.1-0.3,0.1-0.5,0-0.8
	c-0.1-0.3-0.3-0.4-0.6-0.5c-0.1,0-0.2-0.1-0.3-0.1c0,0,0,0,0,0c0.2-0.2,0.4-0.3,0.5-0.6c0.5-0.6,0.7-1.4,0.7-2.4
	c0-0.3,0-0.6-0.1-0.9C34,23.3,36.1,23.2,38.6,23.3z M18.7,37.1c-0.6-0.6-1-1.4-1-2.2c0-0.3-0.1-0.5-0.3-0.7
	c-0.2-0.2-0.5-0.3-0.7-0.3c-0.3,0-0.5,0.1-0.7,0.3c-0.2,0.2-0.3,0.5-0.3,0.7c0,0.2,0,0.3,0,0.5c-1-0.2-1.7-0.7-2-1.5l0,0
	c-0.4-1.3-0.6-2.6-0.4-3.9l0,0c0.2-1.3,0.5-2.5,1.1-3.6l0,0c0.5-1,1.1-1.6,1.9-1.6c0.2,0,0.4,0.1,0.6,0.3c-0.2,0.5-0.3,1.1-0.4,1.7
	c-0.1,0.3,0,0.5,0.1,0.8c0.2,0.2,0.4,0.4,0.7,0.5c0.3,0.1,0.5,0,0.8-0.1c0.2-0.2,0.4-0.4,0.5-0.6c0.7-3.1,1.7-5.2,3-6.3
	c1.3-1,2.4-1.6,3.4-1.6c1.4,0,2.7,0.6,3.9,1.9l0,0c0.7,0.8,1.2,1.5,1.5,2.3c0.1,0.3,0.1,0.6,0.1,0.9c0,0.5-0.1,0.9-0.3,1.2
	c-0.2,0.2-0.4,0.4-0.8,0.3c-0.5,0-0.9-0.2-1.3-0.6l0,0c-0.7-0.7-1.2-1.1-1.5-1.4c0-0.1-0.1-0.2-0.2-0.3c-0.2-0.2-0.4-0.3-0.7-0.3
	c-0.3,0-0.5,0-0.7,0.2c-0.2,0.2-0.4,0.4-0.4,0.6c-0.1,0.4-0.1,0.9,0.2,1.5c0,0,0,0,0,0c0.1,0.3,0.2,0.5,0.2,0.7c0,0.7-0.3,1.3-0.8,2
	l0,0c-0.5,0.6-1,1-1.5,1.1c-0.3,0-0.5,0.2-0.7,0.4c-0.2,0.2-0.2,0.5-0.2,0.8c0,0.3,0.2,0.5,0.4,0.7c0.2,0.2,0.5,0.2,0.8,0.2
	c0.9-0.1,1.8-0.6,2.6-1.5c0,0.7,0.2,1.3,0.6,1.9c-0.1,0-0.2,0.1-0.2,0.1l0,0c-0.9,0.5-1.4,1.4-1.4,2.6c0,0.2,0,0.3,0,0.5
	c-0.7,0.1-1.3,0.4-1.8,1l0,0c-0.5,0.6-0.7,1.3-0.7,2.1c-0.1,0-0.2,0-0.3,0l0,0c-0.2,0-0.3,0-0.4,0C20.1,38.1,19.4,37.7,18.7,37.1z
	 M24.7,40.1L24.7,40.1c-0.6-0.7-1-1.3-1-1.9c0-0.4,0.1-0.7,0.3-0.9l0,0c0.1-0.2,0.3-0.2,0.5-0.2c0.1,0,0.1,0,0.1,0c0,0,0.1,0,0.1,0
	c0.1,0.1,0.3,0.1,0.4,0.1c0.4,0.5,1,1,1.6,1.4l0,0c0.7,0.4,1.5,0.7,2.4,0.9c0,0.1,0.1,0.2,0.2,0.3c0,0.3-0.2,0.6-0.6,0.9
	c-0.5,0.4-1.1,0.6-1.8,0.6C26.1,41.2,25.4,40.8,24.7,40.1z"/>
</svg>
